<?xml version="1.0" encoding="utf-8"?>
<!-- Generator: Adobe Illustrator 19.2.1, SVG Export Plug-In . SVG Version: 6.00 Build 0)  -->
<svg version="1.1" id="layer" xmlns="http://www.w3.org/2000/svg" xmlns:xlink="http://www.w3.org/1999/xlink" x="0px" y="0px"
	 viewBox="0 0 652 652" style="enable-background:new 0 0 652 652;" xml:space="preserve">
<style type="text/css">
	.st0{fill:#00ACE5;}
	.st1{fill:#67C2EC;}
	.st2{fill:#ADDBF5;}
	.st3{fill:#009FE0;}
</style>
<path d="M130.9,323.1v-0.2c0-19.7,14.9-35.9,36.2-35.9c13.1,0,20.9,4.4,27.3,10.7l-9.7,11.2c-5.3-4.8-10.8-7.8-17.7-7.8
	c-11.7,0-20.1,9.7-20.1,21.6v0.2c0,11.9,8.2,21.8,20.1,21.8c7.9,0,12.8-3.2,18.2-8.1l9.7,9.8c-7.1,7.6-15,12.4-28.4,12.4
	C146,358.8,130.9,343,130.9,323.1 M205.2,323.1c0,19.7,15.3,35.7,36.8,35.7c21.4,0,36.9-16.1,36.9-35.9v-0.2
	c0-19.7-15.3-35.7-36.7-35.7c-21.4,0-36.9,16.1-36.9,35.9V323.1 M262.9,323.1c0,11.9-8.5,21.6-20.8,21.6c-12.3,0-21-9.9-21-21.8
	v-0.2c0-11.9,8.5-21.6,20.8-21.6c12.3,0,21,9.9,21,21.8V323.1 M294.6,357.6h49.8v-13.9h-34.6v-55.5h-15.3V357.6z M366.9,357.6h15.3
	v-55.3h21.1v-14.1h-57.5v14.1h21.1V357.6z M418.9,357.6h52.8V344H434v-14.6h32.7v-13.6H434v-14.1h37.1v-13.6h-52.3V357.6z
	 M489.3,357.6h15.1v-44.1l33.6,44.1h13v-69.3h-15.1V331l-32.5-42.7h-14.1V357.6z M569.4,357.6h52.8V344h-37.6v-14.6h32.7v-13.6
	h-32.7v-14.1h37.2v-13.6h-52.3V357.6z"/>
<polygon class="st0" points="44.5,325.5 29.8,356.6 49.2,356.6 63.9,325.5 "/>
<polygon class="st1" points="69,325.5 54.3,356.6 73.7,356.6 88.4,325.5 "/>
<polygon class="st2" points="93.5,325.5 78.8,356.6 98.1,356.6 112.9,325.5 "/>
<path class="st3" d="M56.4,289.8l-14.7,31.1H22.2L37,289.8H56.4z M61.5,289.8l-14.8,31.1h19.4l14.7-31.1H61.5z M86,289.8l-14.8,31.1
	h19.4l14.7-31.1H86z"/>
</svg>
